<?xml version="1.0" encoding="UTF-8"?>
<svg width="1920px" height="1080px" viewBox="0 0 1920 1080" version="1.1" xmlns="http://www.w3.org/2000/svg" xmlns:xlink="http://www.w3.org/1999/xlink">
    <title>twitch-kings-league</title>
    <g id="twitch-kings-league" stroke="none" stroke-width="1" fill="none" fill-rule="evenodd">
        <rect id="Bg" fill="#F1852B" x="0" y="-1" width="1920" height="1082"></rect>
        <g id="santander/icon/santander_secundario" opacity="0.2" transform="translate(320.000000, -200.000000)" fill="#010101" fill-rule="nonzero">
            <path d="M636.2404,0 L1277.8596,201.9536 L1270.7908,231.0608 L1261.9556,267.392 C1261.6436,268.6384 1231.394,395.1488 1219.9844,543.4112 C1219.7508,548.5824 1219.4916,554.3264 1219.1796,560.5632 C1217.2036,601.936 1214.2148,664.464 1216.4244,695.0768 L1216.4244,695.7008 L1216.5284,697.208 L1216.5284,697.832 C1216.7364,703.8608 1221.6228,846.4064 1227.5988,908.1024 C1228.0148,912.4944 1228.5348,917.1968 1229.0548,922.2128 L1229.106,922.6032 C1233.1092,960.416 1239.138,1017.5632 1232.122,1081.1312 C1223.5972,1158.0544 1197.7124,1226.8192 1155.1444,1285.5264 C1037.9636,1447.1472 816.9348,1509.8032 792.4548,1516.4304 C734.8132,1532.0496 679.458,1559.4672 672.4932,1563.3648 L663.3204,1568.7184 L655.7828,1573.1104 L635.9812,1584 L616.178,1573.1104 L608.6404,1568.7184 L599.4676,1563.3648 C592.5028,1559.4672 540.1108,1532.1792 482.4692,1516.56 C457.9876,1509.9344 239.922,1447.1472 122.74168,1285.5264 C80.1732,1226.8192 54.26312,1158.0544 45.76504,1081.1312 C38.72232,1017.5632 44.77752,960.416 48.7796,922.6032 L48.8316,922.2128 C49.37736,917.1712 49.87112,912.4672 50.28696,908.1024 C56.26424,846.4064 61.15,703.8608 61.38392,697.832 L61.38392,697.208 L61.48776,695.7008 L61.48776,695.0768 C62.7539232,677.321376 62.2716138,648.829679 61.2577374,619.95638 L61.1510074,616.96855 L61.0317033,613.738345 C60.3245913,594.90114 59.428413,576.217773 58.68104,560.5632 C58.39528,554.3264 58.10936,548.5824 57.87544,543.4112 C46.46664,395.1488 16.21656,268.6656 15.90472,267.392 L7.06872,231.0608 L-5.68434189e-14,201.9536 L636.2404,0 Z M636.29,50.2608 L57.50984,234.2816 L62.83736,256.2416 C64.13672,261.6224 94.41288,389.3008 105.97752,539.7728 L106.88712,558.3024 C109.58984,614.4624 111.82488,667.4256 109.64184,698.3776 L109.56392,699.6768 C109.35608,705.7584 104.47032,849.2128 98.31112,912.7792 C97.89528,917.016 97.42744,921.5632 96.90776,926.3968 L96.77784,927.696 C93.00952,963.456 87.29208,1017.4848 93.7372,1075.8544 C101.29976,1144.36 124.19512,1205.3792 161.8004,1257.2256 C271.106,1407.9824 485.9748,1467.5472 495.0708,1470.016 C557.5732,1486.9344 613.5764,1516.0144 622.9332,1521.2384 L635.9524,1528.8016 L648.9732,1521.2384 C658.3028,1516.04 717.2948,1486.8304 779.8228,1469.8864 C788.9188,1467.4176 1006.7508,1407.9824 1116.0564,1257.2256 C1153.6356,1205.3792 1176.5572,1144.36 1184.1188,1075.8544 C1190.5652,1017.512 1184.8468,963.5088 1181.0788,927.7744 L1181.026,927.3328 C1180.4804,922.1616 1179.9604,917.3008 1179.5188,912.8048 C1173.386,849.4976 1168.474,705.7584 1168.266,699.6768 L1168.1892,698.248 C1166.0324,667.296 1168.266,614.4096 1170.9428,558.328 L1171.7748,540.5264 L1171.8276,539.7728 C1183.3924,389.4576 1213.746,261.3616 1215.0196,256.0352 L1220.3204,234.2816 L636.29,50.2608 Z M636.1348,81.47248 L1183.418,255.0208 C1176.946,283.4512 1151.3476,401.5936 1140.9268,537.3296 L1139.9652,556.7952 C1137.2372,613.76 1134.9764,667.5824 1137.2628,700.2224 L1137.2628,700.8464 C1137.522,708.9024 1142.4612,851.9408 1148.6452,915.768 C1149.0868,920.368 1149.6068,925.3056 1150.1796,930.5808 L1150.2308,931.0224 C1153.8692,965.432 1159.3524,1017.408 1153.2708,1072.424 C1146.306,1135.5232 1125.3348,1191.5792 1090.9268,1239.008 C987.9876,1380.9808 783.3316,1437.712 774.6772,1440.0512 C712.7476,1456.8144 650.6884,1485.2192 635.9268,1493.016 C621.1908,1485.2192 565.0564,1456.8144 503.154,1440.0512 C494.4996,1437.712 289.818,1380.9808 186.8788,1239.008 C152.4964,1191.5792 131.49784,1135.5232 124.53304,1072.424 C118.45176,1017.408 123.96136,965.3792 127.5996,930.9184 L127.72952,929.672 C128.24936,924.7072 128.74312,920.056 129.15896,915.7424 C135.37,851.656 140.28184,708.7472 140.54168,700.8464 L140.59368,700.8464 L140.59368,700.4048 C142.85464,667.7376 140.59368,613.8384 137.86488,556.7952 L137.00728,538.7856 L136.90344,537.3552 C126.43016,401.1264 100.806,283.0624 94.41288,255.0464 L636.1348,81.47248 Z M319.7828,880.9696 L319.5748,881.9584 L286.8308,1037.9904 L635.1748,1386.3344 L985.6756,1035.8336 L951.762,881.7504 L951.7876,883.6208 L954.3076,1018.7328 L954.0996,1018.9408 L754.85,1218.1664 L754.85,1182.9776 L711.0596,1120.8928 L635.018,1090.0192 L559.2628,1120.8928 L515.474,1182.9776 L515.474,1218.1664 L315.4692,1018.1616 L319.7828,880.9696 Z M635.0452,713.5024 C556.3796,713.5024 477.298,723.2752 477.298,723.2752 L477.194,723.3008 L460.354,767.0384 L460.458,767.0384 L544.1652,764.6736 L622.4932,803.344 L627.2228,945.1872 C651.7812,945.1872 657.1092,932.7392 658.1236,929.4128 L658.1236,929.36 C658.2788,928.8656 658.33,928.5808 658.33,928.5808 C658.33,928.5808 691.3364,942.8736 704.7972,939.5728 C718.2596,936.3248 724.7556,915.56 724.7556,915.56 L764.0244,961.2992 L764.0244,1039.1344 L763.8164,1038.9264 L693.4148,970.344 L635.0452,998.2032 L576.962,970.344 L506.2228,1039.264 L506.2228,1124.712 L544.0612,1081.832 L635.0452,1043.8112 L726.3412,1081.832 L764.1796,1124.712 L823.122,1050.152 L823.1732,1050.0752 L848.226,926.9424 L794.1444,942.0944 L793.8852,942.1728 L841.9892,851.7328 L842.274,851.1872 L825.1748,808.2032 L770.7812,846.432 L701.8084,830.5536 L701.8084,857.2688 L701.6004,857.4768 L685.6964,873.3296 L647.962,803.864 L647.6756,803.3184 L726.0036,764.648 L809.322,766.9872 L809.842,766.9872 L793.0004,723.2752 C793.0004,723.2752 792.358154,723.19604 791.13192,723.05197 L790.228553,722.946463 C775.564238,721.243435 705.057584,713.5024 635.0452,713.5024 Z M444.9668,808.2032 L427.8676,851.1872 L427.9444,851.3184 L476.2836,942.1984 L506.7412,953.7376 L568.1764,857.6064 L568.3844,857.2944 L568.3844,830.5536 L499.3604,846.432 L444.9668,808.2032 Z M766.986,792.5856 L716.2836,800.7968 L716.2836,807.2688 L750.77,816.1296 L771.6644,798.8224 L772.1844,798.3808 L766.986,792.5856 Z M503.338,792.5856 L498.1412,798.3808 L498.426,798.6144 L519.5556,816.1296 L553.8324,807.32 L554.0404,807.2688 L554.0404,800.7968 L503.338,792.5856 Z M613.1636,197.7424 L471.1636,443.4864 L346.5252,288.728 L346.5252,428.9856 L412.2228,516.1488 L411.4692,516.2272 L346.5252,522.1008 L346.5252,690.296 C431.635056,680.76816 588.390028,677.028253 610.43451,676.548647 L612.126811,676.512608 C612.549229,676.50386 612.827728,676.498352 612.9556,676.496 L613.1636,676.496 L613.3188,505.9104 L540.8116,507.9104 L540.5524,507.9104 L613.1108,384.4928 L613.3188,384.1552 L613.1636,197.7424 Z M658.3572,197.64 L658.3572,198.7824 L658.2004,384.0528 L731.0196,507.8592 L730.3444,507.8592 L658.2004,505.832 L658.2004,506.6384 L658.3572,676.4176 C658.3572,676.4176 833.0484,679.952 924.7876,690.192 L924.9956,690.192 L924.9956,522.0496 L859.7124,516.1504 L859.3492,516.1504 L924.7876,429.168 L924.9956,428.9072 L924.9956,288.6752 L800.4084,443.3824 L658.3572,197.64 Z M398.346,300.5776 L399.4884,302.008 L464.226,382.544 L487.2772,342.9904 L487.666,342.2896 L398.346,300.5776 Z M873.1988,300.5264 L783.826,342.2368 L784.138,342.7824 L807.2676,382.4928 L872.3156,301.6432 L873.1988,300.5264 Z" id="Combined-Shape"></path>
        </g>
        <g id="santander/logo/santander_blanco" transform="translate(685.000000, 422.368669)" fill="#010101" fill-rule="nonzero">
            <g id="Kings-League-_-Fútbol-real-26">
                <path d="M6.07397579,184.462249 C13.4853408,192.23652 29.4411365,196.225949 29.4411365,196.225949 C34.5770824,203.40506 42.4899683,209.858821 52.4368002,215.373346 C62.3743447,220.89717 80.4105236,226.513988 85.9922659,228.448257 C91.5740082,230.373226 99.3475827,233.786093 99.3475827,233.786093 C101.167918,232.307494 132.782312,221.306342 144.038671,216.452073 C155.304317,211.607102 169.950586,200.429263 177.055466,186.331422 C184.169633,172.224282 183.435926,157.345294 183.435926,157.345294 C166.662837,159.437652 159.390784,165.78912 140.509449,165.724024 C121.628115,165.649629 107.539091,149.505928 107.539091,149.505928 C137.026665,161.251029 154.347712,154.704274 164.340981,151.254209 C174.33425,147.813443 182.804382,146.660321 182.804382,146.660321 L181.76419,136.049743 C181.76419,136.049743 176.693256,135.80796 173.126885,138.495477 C169.569801,141.182994 166.504951,141.926943 166.504951,141.926943 L151.802958,144.902741 C151.802958,144.902741 156.084461,140.587835 161.573329,135.091908 C167.062197,129.595982 174.120639,128.954326 176.433208,128.954326 L181.197657,128.954326 C179.005825,97.4945665 180.705424,76.0130281 181.866352,60.5202822 C183.036567,45.0275364 186.835124,28.1956816 186.835124,28.1956816 L99.3568701,0 L11.850754,28.2793759 C16.5780532,48.0219326 18.1197657,78.0774877 18.5098376,90.2317607 C18.8999094,102.386034 17.776131,128.228975 17.776131,128.228975 L17.8039933,128.228975 C20.0979872,126.452796 22.6055919,124.964897 25.3082325,123.811776 C31.5122322,121.133558 38.7099864,120.352411 45.3876448,121.645023 L57.8513688,116.920945 L57.9349557,116.893047 L58.1021293,117.051136 L84.2648049,141.53637 L85.4535952,142.642995 L85.4907449,142.680192 L79.8625655,140.476242 C79.7232542,140.392548 79.6025176,140.308853 79.4632063,140.21586 C78.5716135,139.639299 77.7264578,139.099936 76.9277393,138.59777 C65.42062,131.316365 63.145201,130.907193 63.145201,130.907193 L63.145201,130.907193 C64.5847518,132.302098 65.8849913,133.827194 67.0644942,135.454584 L67.0273445,135.435985 C71.1509611,141.145797 73.5842664,148.157519 73.5842664,155.736504 C73.5842664,167.304917 67.9189373,177.552819 59.2259077,183.85779 L50.6629021,174.139952 C50.5607404,173.879569 50.4585787,173.647085 50.3564171,173.405302 C50.1056566,172.791543 49.8456087,172.214983 49.5855608,171.684919 C44.1524173,160.665168 37.1218368,166.0774 37.1218368,166.0774 L43.8645072,181.970019 L35.3572261,174.177149 C27.3607533,158.740199 19.9215261,166.170394 19.3549932,166.765553 L19.3178435,166.802751 L26.0605139,179.468489 L26.54346,180.379827 L20.8038315,175.953328 C20.8038315,175.953328 20.0236878,174.986194 17.2653226,171.433836 C14.5069575,167.881477 10.5783768,167.40721 7.73642483,169.127593 L7.09559252,169.536765 C5.26596984,165.305553 4.24435312,160.63727 4.24435312,155.736504 C3.7149699,147.190385 9.25027506,135.938151 14.3676461,130.702607 C13.9868617,130.990887 9.61248463,134.208469 5.54459258,140.35535 L5.54459258,140.35535 C2.87910168,144.233186 0.817293379,149.403635 0.37149699,154.415994 L0.37149699,154.434592 C-0.60368261,162.869119 1.27237719,169.294981 2.16396997,171.750014 C0.900880202,172.624155 0,173.28441 0,173.28441 L6.07397579,184.45295 L6.07397579,184.462249 Z M152.713125,114.186931 L176.702544,120.873176 C176.702544,120.873176 176.256747,120.901074 167.935215,120.901074 C159.613682,120.901074 154.180538,125.346172 154.180538,125.346172 L143.5,132.739169 L114.941169,141.83395 C114.941169,141.83395 129.373827,127.345536 136.478707,120.268717 C143.583587,113.191899 152.713125,114.19623 152.713125,114.19623 L152.713125,114.186931 Z M127.107695,19.5658688 L119.538444,28.9954272 L116.845091,24.3643423 L127.107695,19.5658688 Z M102.412433,29.1721152 L102.431008,7.73707358 L118.749013,35.9978507 L133.060935,18.1988618 L133.060935,34.3239646 L125.519546,44.3579819 L133.060935,45.0461351 L133.060935,64.388819 C122.528995,63.2077994 102.431008,62.7986272 102.431008,62.7986272 L102.412433,43.1769623 L110.780403,43.4094465 L102.412433,29.1721152 L102.412433,29.1721152 Z M99.7469419,67.0670368 C108.783606,67.0670368 117.89457,68.1922602 117.89457,68.1922602 L119.826354,73.2232179 L110.195295,72.9535363 L101.19578,77.3986339 L105.56087,85.4518859 L107.409067,83.6013118 L107.409067,80.5232213 L115.331241,82.3458972 L121.581678,77.9472965 L123.541324,82.8945599 L117.978157,93.3563481 L124.219306,91.6080671 L121.340205,105.771003 L114.560384,114.354319 L110.21387,109.425655 L99.7283671,105.054952 L89.2800142,109.425655 L84.9334994,114.354319 L84.9334994,104.524888 L93.0599961,96.5925279 L99.7283671,99.8008096 L106.433888,96.5925279 L114.54181,104.506289 L114.54181,95.5509988 L110.028121,90.2875569 C110.028121,90.2875569 109.285127,92.6774943 107.734127,93.049469 C106.192415,93.430743 102.393858,91.784755 102.393858,91.784755 C102.393858,91.784755 102.078086,93.6911253 98.8181995,93.6911253 L98.2795288,77.3800351 L89.2800142,72.9349376 L79.6489548,73.2046192 L81.5807391,68.1736615 C81.5807391,68.1736615 90.673128,67.0484381 99.7005048,67.0484381 L99.7469419,67.0670368 Z M115.507702,76.8220731 L113.046534,78.8586345 L109.080804,77.8450035 L109.080804,77.1010541 L114.904019,76.161818 L115.498414,76.8313724 L115.507702,76.8220731 Z M84.1719306,82.3458972 L92.1033914,80.5232213 L92.1033914,83.6013118 L85.0170863,94.695457 L81.5157271,93.3656475 L75.9525597,82.9038593 L77.9122063,77.9565959 L84.1626432,82.3551966 L84.1719306,82.3458972 Z M84.0326192,76.8220731 L84.6270144,76.1525186 L90.4502298,77.0917547 L90.4502298,77.8357041 L86.4844994,78.8493351 L84.0233318,76.8127737 L84.0326192,76.8220731 Z M82.8345415,24.3643423 L80.1411883,28.9954272 L72.5719371,19.5658688 L82.8345415,24.3643423 L82.8345415,24.3643423 Z M66.6186978,45.0461351 L74.1600867,44.3579819 L66.6186978,34.333264 L66.6186978,18.2081611 L80.9399068,36.0071501 L97.2486247,7.74637294 L97.2671995,29.1814145 L88.9085172,43.4187458 L97.2671995,43.1862616 L97.2486247,62.8079266 C97.2486247,62.8079266 77.1506375,63.2170988 66.6186978,64.3981184 L66.6186978,45.0554345 L66.6186978,45.0461351 Z M59.7645783,104.376098 L63.5538476,86.3167271 L63.0616141,102.097753 L86.038703,125.104388 L86.038703,121.059163 L91.0631998,113.917249 L99.7655168,110.364891 L108.504983,113.917249 L113.52948,121.059163 L113.52948,125.104388 L136.441557,102.172148 L136.14436,86.4190201 L140.035791,104.143614 L99.7748042,144.456371 L59.7645783,104.394697 L59.7645783,104.376098 Z M97.51796,152.286439 C105.505145,160.367589 118.461103,168.318548 118.860462,168.569631 L85.1192479,161.306825 C83.6704097,153.355866 81.6829008,148.808475 81.6829008,148.808475 L97.5086726,152.286439 L97.51796,152.286439 Z M77.9214938,192.124928 C77.9214938,192.124928 99.1896965,195.416904 122.018187,193.343145 C144.855964,191.269386 168.2417,180.677407 168.2417,180.677407 C168.2417,180.677407 161.434017,196.095758 142.571258,205.376526 C123.708498,214.657295 101.010032,221.278444 99.2825707,222.273477 C99.2825707,222.273477 91.2675231,219.009399 82.5652061,216.256786 C72.7483982,213.150797 61.5663387,208.157037 61.5663387,208.157037 C61.5663387,208.157037 72.0054042,200.354868 77.9214938,192.134227 L77.9214938,192.124928 Z" id="Shape"></path>
                <g id="Group" transform="translate(221.532943, 27.209949)">
                    <g id="Path">
                        <polygon points="0.00928742476 56.5029556 0.00928742476 0.967134197 17.8225681 0.967134197 17.8225681 24.6991195 37.5769206 0.967134197 59.6624167 0.967134197 39.750178 23.8063802 60.0617759 56.4936562 39.0164714 56.4936562 27.2493043 35.7467678 17.8132807 44.8694471 17.8132807 56.4936562 0 56.4936562"></polygon>
                        <polygon points="67.1666559 56.5029556 67.1666559 0.967134197 84.9799366 0.967134197 84.9799366 56.5029556"></polygon>
                        <path d="M96.9142774,56.5029556 L96.9142774,0.967134197 L112.071355,0.967134197 L129.32739,20.9049776 C129.810336,21.4443409 130.460456,22.2254878 131.259174,23.2484182 C132.06718,24.2713486 132.884473,25.3035784 133.720342,26.3544069 C134.55621,27.4052354 135.187755,28.2514778 135.614976,28.8931341 L136.014336,28.7350449 C135.958611,27.2285474 135.930749,25.7313493 135.930749,24.2527499 L135.930749,0.967134197 L152.137305,0.967134197 L152.137305,56.5029556 L137.063815,56.5029556 L117.634522,34.3053659 C116.715067,33.2266393 115.944211,32.2502057 115.294091,31.3574665 C114.653259,30.4740266 114.031001,29.6184848 113.436606,28.8187392 L113.037247,28.9768284 C113.092971,29.9997588 113.120834,31.0226892 113.120834,32.0456196 L113.120834,56.5029556 L96.9142774,56.5029556 L96.9142774,56.5029556 Z"></path>
                        <path d="M189.379878,57.4700898 C180.138891,57.4700898 173.219759,55.0522543 168.622484,50.2072839 C164.025209,45.3623136 161.731215,38.2111001 161.731215,28.7350449 C161.731215,22.383577 162.910718,17.0829377 165.279011,12.8331268 C167.647304,8.583316 171.083652,5.38433365 175.59734,3.22688045 C180.111028,1.0787266 185.562747,0 191.961782,0 C195.834639,0 199.475309,0.446369629 202.883794,1.32980952 C206.292279,2.21324941 209.301404,3.53375957 211.911171,5.28204061 C214.520937,7.03032166 216.545596,9.22497234 217.994434,11.8566933 C219.443272,14.4977136 220.167691,17.5572054 220.167691,21.0630669 L203.153129,21.0630669 C203.153129,19.8820472 202.874507,18.8033206 202.307974,17.8361864 C201.741441,16.8690522 200.979872,16.0507079 200.01398,15.3718541 C199.048088,14.7022997 197.933597,14.1908345 196.670507,13.8374585 C195.407417,13.4840826 194.079315,13.3166939 192.676914,13.3166939 C190.577956,13.3166939 188.729759,13.595675 187.113747,14.1629364 C185.497735,14.7301978 184.169633,15.5764402 183.120154,16.7016636 C182.070675,17.8361864 181.281244,19.1752953 180.742573,20.737589 C180.203903,22.2998827 179.934567,24.10396 179.934567,26.1498208 L179.934567,31.320269 C179.934567,34.0077861 180.408226,36.3140292 181.346256,38.2203995 C182.284286,40.1267698 183.714549,41.5960698 185.618471,42.6190002 C187.522393,43.6419306 189.881399,44.1533958 192.676914,44.1533958 C194.552974,44.1533958 196.289722,43.8744148 197.877872,43.3071534 C199.466022,42.739892 200.738399,41.9215477 201.704291,40.8428211 C202.670183,39.7640945 203.153129,38.5272786 203.153129,37.1323735 L203.153129,36.8068957 L190.577956,36.8068957 L190.577956,25.5081644 L220.167691,25.5081644 L220.167691,56.5029556 L210.973141,56.5029556 L209.199243,51.0163289 C207.536794,52.4205333 205.707171,53.601553 203.719662,54.5686872 C201.732153,55.5358214 199.549608,56.261172 197.190603,56.7447391 C194.822309,57.2283062 192.22183,57.4700898 189.370591,57.4700898 L189.379878,57.4700898 Z"></path>
                        <path d="M256.1286,57.4700898 C252.311469,57.4700898 248.754385,57.1911088 245.448062,56.6238474 C242.141738,56.056586 239.244062,55.0894518 236.745745,53.7224448 C234.247427,52.3461384 232.287781,50.4397681 230.857517,47.9940345 C229.436541,45.5483009 228.72141,42.460911 228.72141,38.7504634 L228.72141,38.3040938 C228.72141,38.1181065 228.749272,37.9135204 228.804996,37.6996349 L245.652385,37.6996349 C245.59666,37.9135204 245.568798,38.1181065 245.568798,38.3040938 L245.568798,38.8248584 C245.568798,40.4429483 245.940295,41.6797641 246.701864,42.5353059 C247.454145,43.4001471 248.512912,43.9767079 249.887451,44.2742876 C251.26199,44.5718674 252.803702,44.7206572 254.521876,44.7206572 C255.171995,44.7206572 255.849977,44.7113579 256.574396,44.6834598 C257.298816,44.6555617 257.995372,44.5718674 258.673354,44.4416762 C259.342049,44.3114851 259.964307,44.106899 260.530839,43.8372173 C261.097372,43.5675357 261.533881,43.2048604 261.858941,42.7491914 C262.184001,42.2935224 262.341887,41.7169616 262.341887,41.0102097 C262.341887,39.9872793 261.886803,39.1782343 260.967348,38.5923742 C260.057181,37.9972147 258.812666,37.4857495 257.261666,37.0579786 C255.701379,36.6302077 253.955343,36.2210355 252.023558,35.8490609 C250.091774,35.4770862 248.076403,35.0307165 245.977445,34.5192513 C243.878487,34.0077861 241.863116,33.3475311 239.931331,32.5384861 C237.999547,31.7294412 236.253511,30.6972114 234.693224,29.4324974 C233.132936,28.1677835 231.897709,26.5775917 230.987541,24.6712214 C230.077374,22.7648511 229.613002,20.458608 229.613002,17.7710909 C229.613002,14.5442104 230.281697,11.8008971 231.628374,9.54115083 C232.97505,7.28140458 234.81396,5.44942922 237.154391,4.05452413 C239.494822,2.65961904 242.151026,1.63668864 245.132289,0.985732931 C248.113553,0.344076589 251.243415,0.0185987346 254.521876,0.0185987346 C257.800337,0.0185987346 260.985923,0.353375957 263.911462,1.03222977 C266.837001,1.70178421 269.43748,2.74331335 271.694324,4.13821844 C273.951168,5.5424229 275.725066,7.30930268 277.016018,9.46675589 C278.30697,11.6242091 278.975665,14.1722357 279.03139,17.1387339 L279.03139,18.1058681 L262.341887,18.1058681 L262.341887,17.7803902 C262.341887,16.813256 262.100414,15.8926187 261.617468,15.0370769 C261.134522,14.1815351 260.363666,13.4747832 259.323474,12.9354199 C258.273995,12.3960566 256.890169,12.1263749 255.171995,12.1263749 C253.555983,12.1263749 252.200019,12.2844642 251.104103,12.609942 C249.9989,12.9354199 249.181606,13.3724901 248.642936,13.9397515 C248.104265,14.507013 247.83493,15.1114718 247.83493,15.7531282 C247.83493,16.7760586 248.290014,17.6130016 249.209469,18.254658 C250.119636,18.8963143 251.354864,19.4356776 252.915151,19.8727479 C254.475438,20.3005188 256.221474,20.7096909 258.153259,21.0816656 C260.085043,21.4629397 262.100414,21.8721118 264.199372,22.3370802 C266.29833,22.7927492 268.313701,23.3972081 270.245486,24.1504568 C272.17727,24.9037056 273.923306,25.8894385 275.483593,27.0983562 C277.043881,28.307274 278.279108,29.8044721 279.189276,31.5806513 C280.099443,33.3568304 280.563815,35.5328824 280.563815,38.1181065 C280.563815,42.6933952 279.505048,46.4038427 277.378228,49.2587485 C275.251408,52.1136542 272.353731,54.1967125 268.675911,55.5172226 C264.988803,56.8377328 260.81875,57.4979879 256.137888,57.4979879 L256.1286,57.4700898 Z"></path>
                    </g>
                    <g transform="translate(0.009287, 71.651625)">
                        <polygon id="Path" points="2.63964488e-14 56.4936562 2.63964488e-14 0.95783483 17.8132807 0.95783483 17.8132807 42.284223 46.2699502 42.284223 46.2699502 56.4936562 0 56.4936562"></polygon>
                        <polygon id="Path" points="54.0156624 56.4936562 54.0156624 0.95783483 101.985211 0.95783483 101.985211 14.2745288 71.8382305 14.2745288 71.8382305 21.9465068 97.6386965 21.9465068 97.6386965 34.6959393 71.8382305 34.6959393 71.8382305 43.1676629 102.551744 43.1676629 102.551744 56.4843568 54.0249498 56.4843568"></polygon>
                        <path d="M106.82396,56.4936562 L127.061258,0.95783483 L147.781503,0.95783483 L168.018801,56.4936562 L149.156042,56.4936562 L146.815611,48.663589 L127.386318,48.663589 L125.045887,56.4936562 L106.82396,56.4936562 L106.82396,56.4936562 Z M131.092001,36.2303349 L143.184228,36.2303349 L140.528024,27.3494392 C140.314413,26.7077828 140.07294,25.926636 139.803605,25.0059986 C139.53427,24.0946606 139.264934,23.1182271 138.995599,22.104596 C138.726264,21.0816656 138.456928,20.077334 138.187593,19.0730023 C137.918258,18.07797 137.676785,17.2038295 137.463174,16.4505807 L136.822342,16.4505807 C136.608731,17.4177149 136.320821,18.5243396 135.977186,19.7611555 C135.624264,20.9979713 135.262054,22.281284 134.890557,23.5924948 C134.509773,24.9130049 134.138276,26.1591202 133.757491,27.3494392 L131.101288,36.2303349 L131.092001,36.2303349 Z" id="Shape"></path>
                        <path d="M198.397968,57.4700898 C189.15698,57.4700898 182.237849,55.0522543 177.640573,50.2072839 C173.043298,45.3623136 170.749304,38.2111001 170.749304,28.7350449 C170.749304,22.383577 171.928807,17.0829377 174.297101,12.8331268 C176.665394,8.583316 180.101741,5.38433365 184.615429,3.22688045 C189.129118,1.0787266 194.580836,0 200.979872,0 C204.852728,0 208.493398,0.446369629 211.901883,1.32980952 C215.310368,2.21324941 218.319494,3.53375957 220.92926,5.28204061 C223.539027,7.03032166 225.563685,9.22497234 227.012523,11.8566933 C228.461362,14.4977136 229.185781,17.5572054 229.185781,21.0630669 L212.171219,21.0630669 C212.171219,19.8820472 211.892596,18.8033206 211.326063,17.8361864 C210.75953,16.8690522 209.997961,16.0507079 209.032069,15.3718541 C208.066177,14.7022997 206.951686,14.1908345 205.688596,13.8374585 C204.425506,13.4840826 203.097405,13.3166939 201.695004,13.3166939 C199.596046,13.3166939 197.747848,13.595675 196.131836,14.1629364 C194.515824,14.7301978 193.187722,15.5764402 192.138243,16.7016636 C191.088764,17.8361864 190.299333,19.1752953 189.760663,20.737589 C189.221992,22.2998827 188.952657,24.10396 188.952657,26.1498208 L188.952657,31.320269 C188.952657,34.0077861 189.426315,36.3140292 190.364345,38.2203995 C191.302375,40.1267698 192.732639,41.5960698 194.636561,42.6190002 C196.540483,43.6419306 198.899489,44.1533958 201.695004,44.1533958 C203.571063,44.1533958 205.307812,43.8744148 206.895961,43.3071534 C208.484111,42.739892 209.756488,41.9215477 210.72238,40.8428211 C211.688273,39.7640945 212.171219,38.5272786 212.171219,37.1323735 L212.171219,36.8068957 L199.596046,36.8068957 L199.596046,25.5081644 L229.185781,25.5081644 L229.185781,56.5029556 L219.99123,56.5029556 L218.217332,51.0163289 C216.554883,52.4205333 214.725261,53.601553 212.737752,54.5686872 C210.750243,55.5358214 208.576985,56.261172 206.208692,56.7447391 C203.840399,57.2283062 201.23992,57.4700898 198.38868,57.4700898 L198.397968,57.4700898 Z" id="Path"></path>
                        <path d="M266.028995,57.4700898 C260.224354,57.4700898 255.26487,56.5959493 251.159828,54.8476682 C247.045499,53.0993872 243.887774,50.486265 241.686655,47.017601 C239.485535,43.548937 238.380331,39.2526293 238.380331,34.1379773 L238.380331,0.95783483 L256.193612,0.95783483 L256.193612,33.8868944 C256.193612,36.8440932 257.001618,39.2991261 258.608343,41.2333945 C260.224354,43.1676629 262.666947,44.1347971 265.945408,44.1347971 C269.223869,44.1347971 271.685037,43.1676629 273.319623,41.2333945 C274.95421,39.2991261 275.780791,36.8440932 275.780791,33.8868944 L275.780791,0.95783483 L293.594072,0.95783483 L293.594072,34.1379773 C293.594072,39.2526293 292.507443,43.5396376 290.324898,47.017601 C288.151641,50.486265 285.003204,53.0993872 280.888875,54.8476682 C276.774545,56.5959493 271.815061,57.4700898 266.019707,57.4700898 L266.028995,57.4700898 Z" id="Path"></path>
                        <polygon id="Path" points="303.921688 56.4936562 303.921688 0.95783483 351.891237 0.95783483 351.891237 14.2745288 321.744256 14.2745288 321.744256 21.9465068 347.544722 21.9465068 347.544722 34.6959393 321.744256 34.6959393 321.744256 43.1676629 352.45777 43.1676629 352.45777 56.4843568 303.930975 56.4843568"></polygon>
                    </g>
                    <g transform="translate(0.000000, 138.476878)">
                        <path d="M0.00928742476,44.209192 C0.00928742476,44.7020585 0.501520937,45.0368357 0.99375445,45.0368357 L9.23170021,45.0368357 C9.72393373,45.0368357 10.2161672,44.7113579 10.3833409,44.0511028 L15.4914245,0.995032299 L15.4914245,0.827643688 C15.4914245,0.334777222 15.1663646,0 14.8320173,0 L5.93466442,0 C5.44243091,0 5.27525726,0.325477855 5.27525726,0.827643688 L0,44.209192 L0.00928742476,44.209192 Z" id="Path"></path>
                        <path d="M48.7775549,19.3054865 C48.7775549,20.6259966 48.6103812,21.9465068 48.452495,23.2670169 L45.8148664,44.0511028 C45.8148664,44.5439693 45.3226328,45.0368357 44.8303993,45.0368357 L37.2518607,45.0368357 C36.7596272,45.0368357 36.2673937,44.7113579 36.2673937,44.209192 L36.2673937,44.0418034 L38.7378487,23.9179726 C38.9050223,23.090329 38.9050223,22.104596 38.9050223,21.4443409 L38.9050223,21.4443409 C38.9050223,20.458608 38.7378487,19.6309643 38.2456152,19.1380979 C37.586208,18.4778428 36.601741,18.1523649 35.115753,18.1523649 C32.1530645,18.1523649 28.6888551,18.9800086 28.6888551,18.9800086 L25.5589929,44.2184914 C25.5589929,44.7113579 25.0667594,45.2042243 24.4073523,45.2042243 L16.8288137,45.2042243 C16.3365802,45.2042243 15.8443466,44.8787465 15.8443466,44.3765806 L15.8443466,44.209192 L19.1413824,17.1573326 C19.9679632,14.6837009 21.4446638,14.0234459 25.2339331,13.1958022 C28.5309689,12.5355471 33.4718788,11.7079034 37.2611481,11.7079034 C41.7098246,11.7079034 45.0068604,12.3681585 46.9850819,14.1815351 C47.9695489,15.3346566 48.7961297,16.989944 48.7961297,19.2961871 L48.7961297,19.2961871 L48.7775549,19.3054865 Z" id="Path"></path>
                        <path d="M127.024108,0.827643688 C127.024108,0.334777222 126.856935,0.167388611 126.364701,0.167388611 L117.467348,0.167388611 C116.975115,0.167388611 116.640768,0.492866466 116.640768,0.995032299 L111.207624,46.1899573 C110.381043,50.8117428 108.402822,50.8117428 105.27296,50.969832 C103.954145,50.969832 102.802505,50.969832 101.975924,51.1372207 C100.991457,51.1372207 100.65711,51.4626985 100.489936,52.4577308 L99.9977024,56.0844841 L99.9977024,56.4099619 C99.9977024,57.2376056 100.489936,57.3956948 101.149343,57.3956948 C102.300984,57.5630834 102.793217,57.7211727 107.084008,57.7211727 C114.328199,57.7211727 120.262863,55.5730189 121.414504,45.8458807 L127.014821,0.809044953 L127.024108,0.827643688 Z" id="Path"></path>
                        <path d="M105.607307,36.1280419 C103.629085,41.7355603 99.3475827,45.5297022 89.4657627,45.5297022 C83.8654456,45.5297022 80.4012362,44.3765806 78.2651285,42.2284268 C76.1197334,40.080273 75.4603262,36.9463862 75.4603262,33.4870216 C75.4603262,29.5254911 76.286907,23.5924948 77.7636075,20.1238308 C79.9090027,14.8417902 84.1905055,11.3824255 93.5800919,11.3824255 C99.180409,11.3824255 102.802505,12.7029357 104.780726,14.6837009 C106.926121,16.8318548 107.585528,19.6309643 107.585528,23.2577176 C107.585528,27.219248 106.926121,32.6593779 105.607307,36.1280419 M96.8771277,19.1380979 C96.0505469,18.3104542 94.8989062,17.8175877 92.7627985,17.8175877 C88.3141221,17.8175877 86.8281341,19.7983529 86.0108407,24.2527499 C85.5186072,27.219248 85.0263737,30.687912 85.0263737,33.8217988 C85.0263737,35.802564 85.3514336,37.1230742 86.1780144,37.9414185 C87.0045952,38.7597628 88.1562358,39.09454 90.1344573,39.09454 C94.7503074,39.09454 96.0691217,36.9463862 96.8864151,32.3339 C97.3786486,29.3674019 97.8708821,26.2335151 97.8708821,23.2577176 C97.8708821,21.2769523 97.7037085,19.9564422 96.8864151,19.1380979" id="Shape"></path>
                        <path d="M158.824251,36.1280419 C156.846029,41.7355603 152.564527,45.5297022 142.682707,45.5297022 C137.082389,45.5297022 133.61818,44.3765806 131.482072,42.2284268 C129.336677,40.080273 128.67727,36.9463862 128.67727,33.4870216 C128.67727,29.5254911 129.503851,23.5924948 130.980551,20.1238308 C133.125947,14.8417902 137.407449,11.3824255 146.964209,11.3824255 C152.564527,11.3824255 156.186622,12.7029357 158.164844,14.6837009 C160.310239,16.8318548 160.969646,19.6309643 160.969646,23.2577176 C160.802472,27.219248 160.143065,32.6593779 158.824251,36.1280419 M150.094072,19.1380979 C149.267491,18.3104542 148.11585,17.8175877 145.979742,17.8175877 C141.531066,17.8175877 140.045078,19.7983529 139.227785,24.2527499 C138.735551,27.219248 138.243318,30.687912 138.243318,33.8217988 C138.243318,35.802564 138.410491,37.1230742 139.394958,37.9414185 C140.221539,38.7690622 141.37318,39.09454 143.351401,39.09454 C147.967251,39.09454 149.286066,36.9463862 150.103359,32.3339 C150.595593,29.3674019 151.087826,26.2335151 151.087826,23.2577176 C151.255,21.2769523 150.920652,19.9564422 150.103359,19.1380979" id="Shape"></path>
                        <path d="M195.063782,35.1423089 C192.918387,42.0703376 188.636884,45.5390016 178.755064,45.5390016 C173.981328,45.5390016 169.690538,44.8787465 167.387256,44.0511028 C164.916802,43.2234591 164.424568,42.2377262 164.424568,40.5824388 C164.424568,39.7547951 164.591742,38.7690622 164.749628,37.6159406 L169.031131,1.48789876 C169.031131,0.660255077 169.523364,0.167388611 170.349945,0 L177.928484,0 C178.420717,0 178.912951,0.325477855 178.912951,0.827643688 L178.912951,0.995032299 L177.928484,8.90879385 L177.43625,12.5355471 C177.43625,12.5355471 181.225519,11.3824255 185.181962,11.3824255 C189.138405,11.3824255 192.268267,12.2100692 194.079315,14.0234459 C195.890363,15.8368225 196.884118,18.6452314 196.884118,22.9322397 C196.884118,26.8937702 196.22471,31.3481671 195.07307,35.1423089 M186.34289,19.3054865 C185.51631,18.3197535 184.197495,17.9849763 182.228561,17.9849763 C179.758106,17.9849763 176.46107,18.81262 176.46107,18.81262 L173.990615,38.6109729 C173.990615,38.6109729 176.136011,39.1038394 178.764352,39.1038394 C183.213028,39.1038394 185.024076,37.7833292 186.175717,31.3481671 C186.66795,28.7071468 187.002298,25.9080372 187.002298,23.0996283 C187.169471,21.2862517 186.835124,19.9657415 186.34289,19.3054865" id="Shape"></path>
                        <path d="M226.037344,18.1523649 C225.87017,18.6452314 225.54511,18.81262 225.052877,18.81262 L224.727817,18.81262 C224.06841,18.81262 220.613488,17.9849763 217.316452,17.9849763 C215.830464,17.9849763 213.852243,18.1523649 212.700602,19.1380979 C211.874021,19.7983529 211.548961,20.7840859 211.548961,21.7791182 L211.548961,21.7791182 C211.548961,24.4201385 214.353764,24.4201385 217.316452,25.0803935 C219.786907,25.4058714 222.257362,26.0661265 223.910524,27.7214139 C225.229338,28.8745354 225.888745,30.687912 225.888745,33.4963209 C225.888745,36.4628191 224.904278,39.5967059 222.758883,41.9122483 C219.954081,44.7206572 215.672578,45.8737788 210.898841,45.8737788 C205.623584,45.8737788 200.682674,44.5532686 199.698207,44.0604022 C199.531034,43.8930136 199.205974,43.8930136 199.205974,43.4001471 L199.205974,42.9072806 L200.524788,38.9457502 C200.691962,38.4528837 201.017022,38.1181065 201.351369,38.1181065 L201.676429,38.1181065 C202.50301,38.2854951 206.784512,39.6060052 210.573782,39.6060052 C212.384829,39.6060052 213.870817,39.2805274 215.022458,38.2854951 C216.006925,37.4578514 216.341272,36.4721185 216.341272,35.4770862 C216.341272,34.156576 215.849039,33.4963209 215.022458,33.0034545 C214.195877,32.510588 213.044237,32.3431994 211.558249,32.1758108 C209.254967,31.6829443 206.125105,31.3481671 204.146884,29.3674019 C202.995243,28.0468917 202.168662,26.4009037 202.168662,23.927272 C202.168662,21.1188631 202.828069,18.3197535 204.639117,16.1715997 C207.768979,12.3774578 213.044237,11.8845914 216.991392,11.8845914 C221.932302,11.8845914 225.721571,12.8703243 226.873212,13.3724901 C227.365446,13.5398788 227.365446,13.8653566 227.365446,14.2001338 L227.365446,14.5256117 L226.046631,18.1523649 L226.037344,18.1523649 Z" id="Path"></path>
                        <path d="M76.4540806,1.16242091 C75.4696136,0.836943055 72.6648113,0.176687978 68.2161349,0.176687978 C60.9719436,0.176687978 57.1826743,3.47796336 56.3560935,10.0712148 L56.0310336,14.0327452 L55.2044528,20.7933852 L52.2417643,42.563204 L52.2417643,42.563204 L52.2417643,43.0560705 L52.0745906,44.209192 L52.0745906,44.209192 C52.0745906,44.7020585 52.5668242,44.8694471 53.0590577,44.8694471 L60.303249,44.8694471 C60.7954825,44.8694471 61.4548897,44.7020585 61.6220633,44.0418034 L61.6220633,43.548937 L61.6220633,43.548937 L64.9190991,20.7840859 L72.4976377,20.7840859 C72.9898712,20.7840859 73.4821047,20.458608 73.4821047,19.7983529 L74.1415119,14.8510895 L74.1415119,14.8510895 C74.1415119,14.3582231 73.816452,14.0234459 73.3149311,14.0234459 L65.4113326,14.0234459 L65.9035661,10.0619154 C66.228626,7.42089509 67.3895541,6.76064001 70.3522426,6.76064001 C71.9961168,6.76064001 73.9743382,7.08611787 74.6337454,7.25350648 L74.9588053,7.25350648 C75.4510388,7.25350648 75.6182124,6.92802862 75.7853861,6.42586279 L76.9370267,2.13885447 L76.9370267,1.81337662 C76.9370267,1.48789876 76.7698531,1.15312154 76.4447932,1.15312154 L76.4540806,1.16242091 Z" id="Path"></path>
                    </g>
                </g>
            </g>
        </g>
    </g>
</svg>